<svg width="180" height="60" viewBox="0 0 180 60" fill="none" xmlns="http://www.w3.org/2000/svg"><rect width="180" height="60" rx="10" fill="black"/><path d="M19.5332 27.5918C19.5332 26.3353 19.9824 25.4889 20.8809 25.0527C21.7793 24.6165 22.7396 24.3984 23.7617 24.3984C24.4258 24.3984 25.0833 24.5384 25.7344 24.8184C26.3854 25.0918 26.8314 25.4434 27.0723 25.873L27.082 25.043C27.082 24.8411 27.1536 24.6816 27.2969 24.5645C27.4401 24.4408 27.6126 24.3789 27.8145 24.3789C28.1009 24.3789 28.3158 24.444 28.459 24.5742C28.6022 24.7044 28.6738 24.8932 28.6738 25.1406L28.6348 27.9629C28.6087 28.1842 28.5241 28.3535 28.3809 28.4707C28.2376 28.5814 28.0553 28.6367 27.834 28.6367C27.6191 28.6367 27.4759 28.5716 27.4043 28.4414C27.3327 28.3112 27.2643 28.1257 27.1992 27.8848C26.9779 27.2012 26.5189 26.6771 25.8223 26.3125C25.1322 25.9479 24.4388 25.7656 23.7422 25.7656C23.1432 25.7656 22.6191 25.8828 22.1699 26.1172C21.7207 26.3516 21.4961 26.7064 21.4961 27.1816C21.4961 27.5918 21.6296 27.9108 21.8965 28.1387C22.1634 28.3665 22.5964 28.5553 23.1953 28.7051L25.6953 29.5254C26.5677 29.8184 27.3587 30.1895 28.0684 30.6387C28.778 31.0879 29.1328 31.8626 29.1328 32.9629C29.1328 34.0436 28.7617 34.8639 28.0195 35.4238C27.2839 35.9837 26.2487 36.2637 24.9141 36.2637C24.2174 36.2637 23.4525 36.153 22.6191 35.9316C21.7858 35.7038 21.1836 35.3848 20.8125 34.9746C20.8125 35.4043 20.7344 35.6842 20.5781 35.8145C20.4284 35.9382 20.2428 36 20.0215 36C19.7741 36 19.5658 35.9447 19.3965 35.834C19.2337 35.7233 19.1523 35.5378 19.1523 35.2773V31.9766C19.1589 31.7747 19.237 31.6217 19.3867 31.5176C19.5365 31.4134 19.7057 31.3613 19.8945 31.3613C20.181 31.3613 20.3796 31.4297 20.4902 31.5664C20.6074 31.6966 20.6953 31.8887 20.7539 32.1426C20.9557 33.028 21.4212 33.6921 22.1504 34.1348C22.8796 34.5775 23.765 34.7988 24.8066 34.7988C25.4382 34.7988 25.9785 34.6784 26.4277 34.4375C26.8835 34.1966 27.1113 33.8027 27.1113 33.2559C27.1113 32.709 26.9811 32.3086 26.7207 32.0547C26.4603 31.8008 25.998 31.5729 25.334 31.3711L22.6777 30.541C21.8509 30.2806 21.1185 29.9355 20.4805 29.5059C19.849 29.0762 19.5332 28.4382 19.5332 27.5918ZM34.0547 22.0645C33.6445 22.0645 33.293 21.9212 33 21.6348C32.7135 21.3418 32.5703 20.9902 32.5703 20.5801C32.5703 20.1699 32.7135 19.8216 33 19.5352C33.293 19.2422 33.6445 19.0957 34.0547 19.0957C34.4648 19.0957 34.8132 19.2422 35.0996 19.5352C35.3861 19.8216 35.5293 20.1699 35.5293 20.5801C35.5293 20.9902 35.3861 21.3418 35.0996 21.6348C34.8132 21.9212 34.4648 22.0645 34.0547 22.0645ZM31.0469 35.1895C31.0469 34.9486 31.1055 34.7435 31.2227 34.5742C31.3464 34.3984 31.5352 34.3105 31.7891 34.3105H33.127V26.4004L31.7305 26.7812C31.7174 26.7878 31.6979 26.7943 31.6719 26.8008C31.6523 26.8008 31.6263 26.8008 31.5938 26.8008C31.3984 26.8008 31.2161 26.7227 31.0469 26.5664C30.8776 26.4036 30.793 26.2214 30.793 26.0195C30.793 25.8112 30.8385 25.6354 30.9297 25.4922C31.0273 25.3424 31.1673 25.2448 31.3496 25.1992L34.4746 24.418C34.4941 24.4115 34.5169 24.4082 34.543 24.4082C34.569 24.4017 34.5983 24.3984 34.6309 24.3984C34.7741 24.3984 34.8913 24.4408 34.9824 24.5254C35.0801 24.6035 35.1289 24.7142 35.1289 24.8574V34.3105H36.6328C36.8802 34.3105 37.0592 34.4017 37.1699 34.584C37.2806 34.7598 37.3359 34.9681 37.3359 35.209C37.3359 35.4238 37.2708 35.6094 37.1406 35.7656C37.0169 35.9219 36.8411 36 36.6133 36H31.8477C31.5742 36 31.3724 35.9284 31.2422 35.7852C31.112 35.6354 31.0469 35.4368 31.0469 35.1895ZM55.8516 24.3984C57.0495 24.3984 58.0456 24.7598 58.8398 25.4824C59.6341 26.2051 60.0312 27.1719 60.0312 28.3828V34.2812H61.457C61.7044 34.2812 61.8802 34.3724 61.9844 34.5547C62.0951 34.7305 62.1504 34.9388 62.1504 35.1797C62.1504 35.3945 62.0885 35.5866 61.9648 35.7559C61.8411 35.9186 61.6654 36 61.4375 36H56.6719C56.3984 36 56.1966 35.9219 56.0664 35.7656C55.9362 35.6094 55.8711 35.4076 55.8711 35.1602C55.8711 34.9193 55.9297 34.7142 56.0469 34.5449C56.1706 34.3691 56.3594 34.2812 56.6133 34.2812H58.0586V28.5586C58.0586 27.7839 57.86 27.1751 57.4629 26.7324C57.0723 26.2832 56.4831 26.0586 55.6953 26.0586C54.6471 26.0586 53.765 26.3385 53.0488 26.8984C52.3327 27.4583 51.776 28.1061 51.3789 28.8418V34.2812H52.9902C53.2376 34.2812 53.4167 34.3724 53.5273 34.5547C53.638 34.7305 53.6934 34.9388 53.6934 35.1797C53.6934 35.3945 53.6283 35.5866 53.498 35.7559C53.3743 35.9186 53.1986 36 52.9707 36H47.8145C47.541 36 47.3392 35.9219 47.209 35.7656C47.0788 35.6094 47.0137 35.4076 47.0137 35.1602C47.0137 34.9193 47.0723 34.7142 47.1895 34.5449C47.3132 34.3691 47.502 34.2812 47.7559 34.2812H49.3965V28.5586C49.3965 27.7839 49.1979 27.1751 48.8008 26.7324C48.4102 26.2832 47.821 26.0586 47.0332 26.0586C45.9329 26.0586 45.0052 26.319 44.25 26.8398C43.5013 27.3607 42.9414 27.9954 42.5703 28.7441V34.2812H44.377C44.6243 34.2812 44.8001 34.3724 44.9043 34.5547C45.015 34.7305 45.0703 34.9388 45.0703 35.1797C45.0703 35.3945 45.0085 35.5866 44.8848 35.7559C44.7611 35.9186 44.5853 36 44.3574 36H39.1914C38.918 36 38.7161 35.9219 38.5859 35.7656C38.4557 35.6094 38.3906 35.4076 38.3906 35.1602C38.3906 34.9193 38.4492 34.7142 38.5664 34.5449C38.6901 34.3691 38.8789 34.2812 39.1328 34.2812H40.5781V26.4395L39.1719 26.7812C39.1589 26.7878 39.1393 26.7943 39.1133 26.8008C39.0938 26.8008 39.0677 26.8008 39.0352 26.8008C38.8398 26.8008 38.6576 26.7227 38.4883 26.5664C38.319 26.4036 38.2344 26.2214 38.2344 26.0195C38.2344 25.7982 38.2799 25.6224 38.3711 25.4922C38.4688 25.3555 38.6087 25.2578 38.791 25.1992L41.5156 24.418C41.5417 24.418 41.5579 24.4147 41.5645 24.4082C41.571 24.4017 41.5872 24.3984 41.6133 24.3984H41.6719C41.8086 24.3984 41.9258 24.4408 42.0234 24.5254C42.1211 24.6035 42.1699 24.7142 42.1699 24.8574L42.375 26.7031C42.7656 26.0456 43.4036 25.4987 44.2891 25.0625C45.181 24.6198 46.151 24.3984 47.1992 24.3984C48.1823 24.3984 49.0124 24.6296 49.6895 25.0918C50.3665 25.554 50.8418 26.1497 51.1152 26.8789C51.5645 26.2279 52.1927 25.6517 53 25.1504C53.8073 24.6491 54.7578 24.3984 55.8516 24.3984ZM74.0547 30.3164C74.0547 29.1641 73.765 28.168 73.1855 27.3281C72.6126 26.4818 71.763 26.0586 70.6367 26.0586C69.7773 26.0586 69.0352 26.2214 68.4102 26.5469C67.7917 26.8724 67.2871 27.2891 66.8965 27.7969V33.2363C67.3066 33.6465 67.8177 33.9753 68.4297 34.2227C69.0482 34.4635 69.7643 34.584 70.5781 34.584C71.7174 34.584 72.5801 34.1608 73.166 33.3145C73.7585 32.4616 74.0547 31.4622 74.0547 30.3164ZM76.2129 30.3164C76.2129 32.0482 75.7018 33.4707 74.6797 34.584C73.6576 35.6908 72.2904 36.2441 70.5781 36.2441C69.7773 36.2441 69.0775 36.1237 68.4785 35.8828C67.8861 35.6419 67.3587 35.3262 66.8965 34.9355V39.8965H68.8691C69.1165 39.8965 69.2956 39.9876 69.4062 40.1699C69.5169 40.3522 69.5723 40.5638 69.5723 40.8047C69.5723 41.0195 69.5072 41.2083 69.377 41.3711C69.2533 41.5339 69.0775 41.6152 68.8496 41.6152H63.7324C63.459 41.6152 63.2572 41.5371 63.127 41.3809C62.9967 41.2246 62.9316 41.0228 62.9316 40.7754C62.9316 40.5345 62.9902 40.3262 63.1074 40.1504C63.2311 39.9811 63.4199 39.8965 63.6738 39.8965H64.8945V26.4395L63.498 26.7812C63.485 26.7878 63.4655 26.7943 63.4395 26.8008C63.4134 26.8008 63.3841 26.8008 63.3516 26.8008C63.1562 26.8008 62.974 26.7227 62.8047 26.5664C62.6354 26.4036 62.5508 26.2214 62.5508 26.0195C62.5508 25.7982 62.5996 25.6224 62.6973 25.4922C62.7949 25.3555 62.9349 25.2578 63.1172 25.1992L65.832 24.418C65.8581 24.418 65.8743 24.4147 65.8809 24.4082C65.8874 24.4017 65.9036 24.3984 65.9297 24.3984H65.998C66.1348 24.3984 66.252 24.4408 66.3496 24.5254C66.4473 24.6035 66.4961 24.7142 66.4961 24.8574L66.6914 26.7031C67.0039 26.0391 67.5247 25.4889 68.2539 25.0527C68.9831 24.6165 69.8229 24.3984 70.7734 24.3984C72.4792 24.3984 73.8105 24.9583 74.7676 26.0781C75.7311 27.1914 76.2129 28.6042 76.2129 30.3164ZM81.9551 19.0566C82.0918 19.0566 82.2122 19.1022 82.3164 19.1934C82.4206 19.278 82.4727 19.3919 82.4727 19.5352V34.2812H84.8555C85.1029 34.2812 85.2819 34.3724 85.3926 34.5547C85.5033 34.7305 85.5586 34.9388 85.5586 35.1797C85.5586 35.3945 85.4935 35.5866 85.3633 35.7559C85.2396 35.9186 85.0638 36 84.8359 36H78.3125C78.0391 36 77.8372 35.9219 77.707 35.7656C77.5768 35.6094 77.5117 35.4076 77.5117 35.1602C77.5117 34.9193 77.5703 34.7142 77.6875 34.5449C77.8112 34.3691 78 34.2812 78.2539 34.2812H80.4707V21.1562L78.1758 21.7617C78.1497 21.7617 78.1335 21.765 78.127 21.7715C78.1204 21.778 78.1042 21.7812 78.0781 21.7812C77.8763 21.7812 77.694 21.6934 77.5312 21.5176C77.375 21.3353 77.2969 21.1432 77.2969 20.9414C77.2969 20.6615 77.3685 20.4792 77.5117 20.3945C77.6615 20.3034 77.8438 20.2253 78.0586 20.1602L81.8184 19.0762C81.8314 19.0697 81.8477 19.0664 81.8672 19.0664C81.8932 19.0599 81.9225 19.0566 81.9551 19.0566ZM88.5957 30.541C88.5957 31.8171 88.9928 32.7904 89.7871 33.4609C90.5879 34.125 91.571 34.457 92.7363 34.457C93.5632 34.457 94.2109 34.304 94.6797 33.998C95.1549 33.6855 95.6074 33.3307 96.0371 32.9336C96.1348 32.849 96.2389 32.7871 96.3496 32.748C96.4603 32.7025 96.571 32.6797 96.6816 32.6797C96.9421 32.6797 97.1634 32.7611 97.3457 32.9238C97.528 33.0801 97.6191 33.2917 97.6191 33.5586C97.6191 34.3919 97.0137 35.0495 95.8027 35.5312C94.5983 36.0065 93.5501 36.2441 92.6582 36.2441C90.8743 36.2441 89.403 35.7168 88.2441 34.6621C87.0918 33.6009 86.5156 32.1751 86.5156 30.3848C86.5156 28.6139 87.0462 27.1751 88.1074 26.0684C89.1686 24.9551 90.6074 24.3984 92.4238 24.3984C93.7259 24.3984 94.9141 24.8509 95.9883 25.7559C97.0625 26.6543 97.5996 27.8164 97.5996 29.2422C97.5996 29.7305 97.4466 30.0234 97.1406 30.1211C96.8411 30.2188 96.4603 30.2904 95.998 30.3359L88.5957 30.541ZM95.1484 28.6172C95.1484 27.6862 94.862 27.0286 94.2891 26.6445C93.7227 26.2539 93.1009 26.0586 92.4238 26.0586C91.278 26.0586 90.3665 26.3418 89.6895 26.9082C89.0189 27.4746 88.6413 28.2266 88.5566 29.1641L94.4258 29.0371C94.6081 29.0306 94.7741 28.998 94.9238 28.9395C95.0736 28.8743 95.1484 28.7669 95.1484 28.6172ZM104.65 27.5918C104.65 26.3353 105.1 25.4889 105.998 25.0527C106.896 24.6165 107.857 24.3984 108.879 24.3984C109.543 24.3984 110.201 24.5384 110.852 24.8184C111.503 25.0918 111.949 25.4434 112.189 25.873L112.199 25.043C112.199 24.8411 112.271 24.6816 112.414 24.5645C112.557 24.4408 112.73 24.3789 112.932 24.3789C113.218 24.3789 113.433 24.444 113.576 24.5742C113.719 24.7044 113.791 24.8932 113.791 25.1406L113.752 27.9629C113.726 28.1842 113.641 28.3535 113.498 28.4707C113.355 28.5814 113.173 28.6367 112.951 28.6367C112.736 28.6367 112.593 28.5716 112.521 28.4414C112.45 28.3112 112.382 28.1257 112.316 27.8848C112.095 27.2012 111.636 26.6771 110.939 26.3125C110.249 25.9479 109.556 25.7656 108.859 25.7656C108.26 25.7656 107.736 25.8828 107.287 26.1172C106.838 26.3516 106.613 26.7064 106.613 27.1816C106.613 27.5918 106.747 27.9108 107.014 28.1387C107.281 28.3665 107.714 28.5553 108.312 28.7051L110.812 29.5254C111.685 29.8184 112.476 30.1895 113.186 30.6387C113.895 31.0879 114.25 31.8626 114.25 32.9629C114.25 34.0436 113.879 34.8639 113.137 35.4238C112.401 35.9837 111.366 36.2637 110.031 36.2637C109.335 36.2637 108.57 36.153 107.736 35.9316C106.903 35.7038 106.301 35.3848 105.93 34.9746C105.93 35.4043 105.852 35.6842 105.695 35.8145C105.546 35.9382 105.36 36 105.139 36C104.891 36 104.683 35.9447 104.514 35.834C104.351 35.7233 104.27 35.5378 104.27 35.2773V31.9766C104.276 31.7747 104.354 31.6217 104.504 31.5176C104.654 31.4134 104.823 31.3613 105.012 31.3613C105.298 31.3613 105.497 31.4297 105.607 31.5664C105.725 31.6966 105.812 31.8887 105.871 32.1426C106.073 33.028 106.538 33.6921 107.268 34.1348C107.997 34.5775 108.882 34.7988 109.924 34.7988C110.555 34.7988 111.096 34.6784 111.545 34.4375C112.001 34.1966 112.229 33.8027 112.229 33.2559C112.229 32.709 112.098 32.3086 111.838 32.0547C111.577 31.8008 111.115 31.5729 110.451 31.3711L107.795 30.541C106.968 30.2806 106.236 29.9355 105.598 29.5059C104.966 29.0762 104.65 28.4382 104.65 27.5918ZM128.283 34.3594C128.283 34.8802 127.938 35.3262 127.248 35.6973C126.558 36.0618 125.992 36.2441 125.549 36.2441C125.015 36.2441 124.585 36.1139 124.26 35.8535C123.934 35.5931 123.713 35.196 123.596 34.6621C123.12 35.209 122.499 35.6159 121.73 35.8828C120.962 36.1432 120.142 36.2734 119.27 36.2734C118.273 36.2734 117.44 35.9707 116.77 35.3652C116.105 34.7598 115.773 33.972 115.773 33.002C115.773 31.2572 116.626 30.1895 118.332 29.7988C120.038 29.4082 121.704 29.1413 123.332 28.998V27.416C123.332 26.9082 123.114 26.5566 122.678 26.3613C122.242 26.1595 121.773 26.0586 121.271 26.0586C120.36 26.0586 119.667 26.1562 119.191 26.3516C118.723 26.5469 118.176 26.8431 117.551 27.2402C117.492 27.2728 117.434 27.2988 117.375 27.3184C117.323 27.3379 117.268 27.3477 117.209 27.3477C116.988 27.3477 116.789 27.2435 116.613 27.0352C116.438 26.8268 116.35 26.6087 116.35 26.3809C116.35 25.5996 116.919 25.0755 118.059 24.8086C119.204 24.5352 120.181 24.3984 120.988 24.3984C122.635 24.3984 123.762 24.75 124.367 25.4531C124.973 26.1497 125.275 27.3118 125.275 28.9395V33.8613C125.275 34.0632 125.308 34.2324 125.373 34.3691C125.445 34.4993 125.555 34.5645 125.705 34.5645C125.998 34.5645 126.327 34.3887 126.691 34.0371C127.056 33.6855 127.355 33.5098 127.59 33.5098C127.733 33.5098 127.883 33.6074 128.039 33.8027C128.202 33.9915 128.283 34.1771 128.283 34.3594ZM123.332 30.4629C122.303 30.5736 121.135 30.7428 119.826 30.9707C118.524 31.1921 117.873 31.8496 117.873 32.9434C117.873 33.4967 118.078 33.9102 118.488 34.1836C118.898 34.4505 119.387 34.584 119.953 34.584C120.63 34.584 121.249 34.4603 121.809 34.2129C122.375 33.959 122.883 33.6562 123.332 33.3047V30.4629ZM133.186 19.0566C133.322 19.0566 133.443 19.1022 133.547 19.1934C133.651 19.278 133.703 19.3919 133.703 19.5352V34.2812H136.086C136.333 34.2812 136.512 34.3724 136.623 34.5547C136.734 34.7305 136.789 34.9388 136.789 35.1797C136.789 35.3945 136.724 35.5866 136.594 35.7559C136.47 35.9186 136.294 36 136.066 36H129.543C129.27 36 129.068 35.9219 128.938 35.7656C128.807 35.6094 128.742 35.4076 128.742 35.1602C128.742 34.9193 128.801 34.7142 128.918 34.5449C129.042 34.3691 129.23 34.2812 129.484 34.2812H131.701V21.1562L129.406 21.7617C129.38 21.7617 129.364 21.765 129.357 21.7715C129.351 21.778 129.335 21.7812 129.309 21.7812C129.107 21.7812 128.924 21.6934 128.762 21.5176C128.605 21.3353 128.527 21.1432 128.527 20.9414C128.527 20.6615 128.599 20.4792 128.742 20.3945C128.892 20.3034 129.074 20.2253 129.289 20.1602L133.049 19.0762C133.062 19.0697 133.078 19.0664 133.098 19.0664C133.124 19.0599 133.153 19.0566 133.186 19.0566ZM139.826 30.541C139.826 31.8171 140.223 32.7904 141.018 33.4609C141.818 34.125 142.801 34.457 143.967 34.457C144.794 34.457 145.441 34.304 145.91 33.998C146.385 33.6855 146.838 33.3307 147.268 32.9336C147.365 32.849 147.469 32.7871 147.58 32.748C147.691 32.7025 147.801 32.6797 147.912 32.6797C148.173 32.6797 148.394 32.7611 148.576 32.9238C148.758 33.0801 148.85 33.2917 148.85 33.5586C148.85 34.3919 148.244 35.0495 147.033 35.5312C145.829 36.0065 144.781 36.2441 143.889 36.2441C142.105 36.2441 140.633 35.7168 139.475 34.6621C138.322 33.6009 137.746 32.1751 137.746 30.3848C137.746 28.6139 138.277 27.1751 139.338 26.0684C140.399 24.9551 141.838 24.3984 143.654 24.3984C144.956 24.3984 146.145 24.8509 147.219 25.7559C148.293 26.6543 148.83 27.8164 148.83 29.2422C148.83 29.7305 148.677 30.0234 148.371 30.1211C148.072 30.2188 147.691 30.2904 147.229 30.3359L139.826 30.541ZM146.379 28.6172C146.379 27.6862 146.092 27.0286 145.52 26.6445C144.953 26.2539 144.331 26.0586 143.654 26.0586C142.508 26.0586 141.597 26.3418 140.92 26.9082C140.249 27.4746 139.872 28.2266 139.787 29.1641L145.656 29.0371C145.839 29.0306 146.005 28.998 146.154 28.9395C146.304 28.8743 146.379 28.7669 146.379 28.6172ZM151.33 27.5918C151.33 26.3353 151.779 25.4889 152.678 25.0527C153.576 24.6165 154.536 24.3984 155.559 24.3984C156.223 24.3984 156.88 24.5384 157.531 24.8184C158.182 25.0918 158.628 25.4434 158.869 25.873L158.879 25.043C158.879 24.8411 158.951 24.6816 159.094 24.5645C159.237 24.4408 159.41 24.3789 159.611 24.3789C159.898 24.3789 160.113 24.444 160.256 24.5742C160.399 24.7044 160.471 24.8932 160.471 25.1406L160.432 27.9629C160.406 28.1842 160.321 28.3535 160.178 28.4707C160.035 28.5814 159.852 28.6367 159.631 28.6367C159.416 28.6367 159.273 28.5716 159.201 28.4414C159.13 28.3112 159.061 28.1257 158.996 27.8848C158.775 27.2012 158.316 26.6771 157.619 26.3125C156.929 25.9479 156.236 25.7656 155.539 25.7656C154.94 25.7656 154.416 25.8828 153.967 26.1172C153.518 26.3516 153.293 26.7064 153.293 27.1816C153.293 27.5918 153.426 27.9108 153.693 28.1387C153.96 28.3665 154.393 28.5553 154.992 28.7051L157.492 29.5254C158.365 29.8184 159.156 30.1895 159.865 30.6387C160.575 31.0879 160.93 31.8626 160.93 32.9629C160.93 34.0436 160.559 34.8639 159.816 35.4238C159.081 35.9837 158.046 36.2637 156.711 36.2637C156.014 36.2637 155.249 36.153 154.416 35.9316C153.583 35.7038 152.98 35.3848 152.609 34.9746C152.609 35.4043 152.531 35.6842 152.375 35.8145C152.225 35.9382 152.04 36 151.818 36C151.571 36 151.363 35.9447 151.193 35.834C151.031 35.7233 150.949 35.5378 150.949 35.2773V31.9766C150.956 31.7747 151.034 31.6217 151.184 31.5176C151.333 31.4134 151.503 31.3613 151.691 31.3613C151.978 31.3613 152.176 31.4297 152.287 31.5664C152.404 31.6966 152.492 31.8887 152.551 32.1426C152.753 33.028 153.218 33.6921 153.947 34.1348C154.676 34.5775 155.562 34.7988 156.604 34.7988C157.235 34.7988 157.775 34.6784 158.225 34.4375C158.68 34.1966 158.908 33.8027 158.908 33.2559C158.908 32.709 158.778 32.3086 158.518 32.0547C158.257 31.8008 157.795 31.5729 157.131 31.3711L154.475 30.541C153.648 30.2806 152.915 29.9355 152.277 29.5059C151.646 29.0762 151.33 28.4382 151.33 27.5918Z" fill="white"/></svg>